<?xml version="1.0" encoding="utf-8"?>
<svg xmlns="http://www.w3.org/2000/svg" xmlns:xlink="http://www.w3.org/1999/xlink">
  <symbol id="facebook" viewBox="0 0 486.392 486.392">
  			<path d="M243.196,0C108.891,0,0,108.891,0,243.196s108.891,243.196,243.196,243.196
				s243.196-108.891,243.196-243.196C486.392,108.861,377.501,0,243.196,0z M306.062,243.165l-39.854,0.03l-0.03,145.917h-54.689
				V243.196H175.01v-50.281l36.479-0.03l-0.061-29.609c0-41.039,11.126-65.997,59.431-65.997h40.249v50.311h-25.171
				c-18.817,0-19.729,7.022-19.729,20.124l-0.061,25.171h45.234L306.062,243.165z" />
  </symbol>
  <symbol id="twitter" viewBox="0 0 486.392 486.392">
  		<path d="M243.196,0C108.891,0,0,108.891,0,243.196s108.891,243.196,243.196,243.196
			s243.196-108.891,243.196-243.196C486.392,108.861,377.501,0,243.196,0z M364.186,188.598l0.182,7.752
			c0,79.16-60.221,170.359-170.359,170.359c-33.804,0-65.268-9.91-91.776-26.904c4.682,0.547,9.454,0.851,14.288,0.851
			c28.059,0,53.868-9.576,74.357-25.627c-26.204-0.486-48.305-17.814-55.935-41.586c3.678,0.699,7.387,1.034,11.278,1.034
			c5.472,0,10.761-0.699,15.777-2.067c-27.39-5.533-48.031-29.7-48.031-58.701v-0.76c8.086,4.499,17.297,7.174,27.116,7.509
			c-16.051-10.731-26.63-29.062-26.63-49.825c0-10.974,2.949-21.249,8.086-30.095c29.518,36.236,73.658,60.069,123.422,62.562
			c-1.034-4.378-1.55-8.968-1.55-13.649c0-33.044,26.812-59.857,59.887-59.857c17.206,0,32.771,7.265,43.714,18.908
			c13.619-2.706,26.448-7.691,38.03-14.531c-4.469,13.984-13.953,25.718-26.326,33.135c12.069-1.429,23.651-4.682,34.382-9.424
			C386.073,169.659,375.889,180.208,364.186,188.598z" />
  </symbol>
  <symbol id="vk" viewBox="0 0 97.75 97.75">
	<path d="M48.875,0C21.883,0,0,21.882,0,48.875S21.883,97.75,48.875,97.75S97.75,75.868,97.75,48.875S75.867,0,48.875,0z
		 M73.667,54.161c2.278,2.225,4.688,4.319,6.733,6.774c0.906,1.086,1.76,2.209,2.41,3.472c0.928,1.801,0.09,3.776-1.522,3.883
		l-10.013-0.002c-2.586,0.214-4.644-0.829-6.379-2.597c-1.385-1.409-2.67-2.914-4.004-4.371c-0.545-0.598-1.119-1.161-1.803-1.604
		c-1.365-0.888-2.551-0.616-3.333,0.81c-0.797,1.451-0.979,3.059-1.055,4.674c-0.109,2.361-0.821,2.978-3.19,3.089
		c-5.062,0.237-9.865-0.531-14.329-3.083c-3.938-2.251-6.986-5.428-9.642-9.025c-5.172-7.012-9.133-14.708-12.692-22.625
		c-0.801-1.783-0.215-2.737,1.752-2.774c3.268-0.063,6.536-0.055,9.804-0.003c1.33,0.021,2.21,0.782,2.721,2.037
		c1.766,4.345,3.931,8.479,6.644,12.313c0.723,1.021,1.461,2.039,2.512,2.76c1.16,0.796,2.044,0.533,2.591-0.762
		c0.35-0.823,0.501-1.703,0.577-2.585c0.26-3.021,0.291-6.041-0.159-9.05c-0.28-1.883-1.339-3.099-3.216-3.455
		c-0.956-0.181-0.816-0.535-0.351-1.081c0.807-0.944,1.563-1.528,3.074-1.528l11.313-0.002c1.783,0.35,2.183,1.15,2.425,2.946
		l0.01,12.572c-0.021,0.695,0.349,2.755,1.597,3.21c1,0.33,1.66-0.472,2.258-1.105c2.713-2.879,4.646-6.277,6.377-9.794
		c0.764-1.551,1.423-3.156,2.063-4.764c0.476-1.189,1.216-1.774,2.558-1.754l10.894,0.013c0.321,0,0.647,0.003,0.965,0.058
		c1.836,0.314,2.339,1.104,1.771,2.895c-0.894,2.814-2.631,5.158-4.329,7.508c-1.82,2.516-3.761,4.944-5.563,7.471
		C71.48,50.992,71.611,52.155,73.667,54.161z" />
</symbol>
<symbol id="skype" viewBox="0 0 438.536 438.536">
	<path d="M415.7,262.093c3.039-14.657,4.564-28.935,4.564-42.826c0-27.218-5.276-53.247-15.844-78.087 c-10.562-24.838-24.838-46.249-42.825-64.237C343.608,58.955,322.2,44.68,297.361,34.114 c-24.845-10.559-50.866-15.843-78.088-15.843c-13.894,0-28.171,1.524-42.827,4.57C156.651,7.614,134.381,0,109.637,0 C79.375,0,53.538,10.705,32.124,32.115c-21.416,21.416-32.12,47.253-32.12,77.516c0,24.744,7.614,47.014,22.839,66.809 c-3.044,14.655-4.568,28.933-4.568,42.827c0,27.215,5.28,53.243,15.843,78.085c10.562,24.838,24.838,46.25,42.827,64.241 c17.987,17.986,39.401,32.257,64.239,42.824c24.84,10.564,50.869,15.845,78.087,15.845c13.893,0,28.17-1.526,42.834-4.572 c19.79,15.229,42.058,22.847,66.804,22.847c30.259,0,56.103-10.711,77.505-32.12c21.416-21.416,32.12-47.253,32.12-77.519 C438.529,304.158,430.918,281.891,415.7,262.093z M325.472,304.49c-6.276,11.136-14.702,20.033-25.263,26.696 c-10.567,6.663-22.224,11.748-34.975,15.273c-12.751,3.518-26.073,5.283-39.971,5.283c-32.163,0-59.855-6.235-83.078-18.705 c-23.223-12.471-34.833-27.453-34.833-44.968c0-8.562,2.428-15.693,7.282-21.408c4.853-5.712,12.038-8.562,21.555-8.562 c5.52,0,10.657,1.522,15.415,4.564c4.758,3.046,9.135,6.715,13.134,10.999c3.999,4.285,8.326,8.562,12.99,12.847 c4.661,4.285,10.847,7.946,18.555,10.992c7.71,3.046,16.418,4.572,26.128,4.572c12.371,0,22.36-2.423,29.981-7.275 c7.61-4.859,11.416-10.999,11.416-18.418c0-7.618-3.042-13.326-9.13-17.132c-4.182-2.673-14.846-6.098-31.977-10.283 l-41.688-10.284c-11.419-2.662-21.222-5.752-29.408-9.271c-8.186-3.524-15.8-8.134-22.841-13.849 c-7.039-5.708-12.369-12.891-15.986-21.555c-3.616-8.658-5.424-18.796-5.424-30.406c0-13.896,3.189-26.121,9.563-36.688 c6.374-10.565,14.849-18.846,25.409-24.841c10.562-5.996,21.935-10.468,34.119-13.418c12.179-2.951,24.742-4.426,37.685-4.426 c18.276,0,35.589,2.19,51.961,6.567c16.368,4.377,29.882,10.801,40.538,19.271c10.657,8.473,15.985,17.942,15.985,28.409 c0,8.562-2.707,15.893-8.138,21.982c-5.414,6.088-12.601,9.134-21.55,9.134c-4.948,0-9.514-1.143-13.702-3.427 c-4.186-2.283-7.99-5.042-11.423-8.278c-3.426-3.234-7.047-6.423-10.852-9.563c-3.806-3.14-8.946-5.852-15.41-8.136 c-6.479-2.284-13.802-3.427-21.986-3.427c-27.406,0-41.112,7.323-41.112,21.982c0,3.234,0.715,6.09,2.141,8.564 c1.427,2.474,3,4.473,4.71,5.996c1.709,1.525,4.565,3.046,8.564,4.57c3.999,1.525,7.33,2.622,9.994,3.284 c2.663,0.666,6.854,1.665,12.562,2.996l29.694,6.851c9.325,2.096,17.648,4.286,24.981,6.567c7.331,2.288,15.181,5.521,23.555,9.71 c8.374,4.187,15.321,8.848,20.838,13.988c5.523,5.144,10.137,11.656,13.853,19.555c3.714,7.901,5.564,16.61,5.564,26.124 C334.896,280.84,331.761,293.357,325.472,304.49z" />
</symbol>
<symbol id="phone" viewBox="0 0 401.998 401.998">
	<path d="M401.129,311.475c-1.137-3.426-8.371-8.473-21.697-15.129c-3.61-2.098-8.754-4.949-15.41-8.566 c-6.662-3.617-12.709-6.95-18.13-9.996c-5.432-3.045-10.521-5.995-15.276-8.846c-0.76-0.571-3.139-2.234-7.136-5 c-4.001-2.758-7.375-4.805-10.14-6.14c-2.759-1.327-5.473-1.995-8.138-1.995c-3.806,0-8.56,2.714-14.268,8.135 c-5.708,5.428-10.944,11.324-15.7,17.706c-4.757,6.379-9.802,12.275-15.126,17.7c-5.332,5.427-9.713,8.138-13.135,8.138 c-1.718,0-3.86-0.479-6.427-1.424c-2.566-0.951-4.518-1.766-5.858-2.423c-1.328-0.671-3.607-1.999-6.845-4.004 c-3.244-1.999-5.048-3.094-5.428-3.285c-26.075-14.469-48.438-31.029-67.093-49.676c-18.649-18.658-35.211-41.019-49.676-67.097 c-0.19-0.381-1.287-2.19-3.284-5.424c-2-3.237-3.333-5.518-3.999-6.854c-0.666-1.331-1.475-3.283-2.425-5.852 s-1.427-4.709-1.427-6.424c0-3.424,2.713-7.804,8.138-13.134c5.424-5.327,11.326-10.373,17.7-15.128 c6.379-4.755,12.275-9.991,17.701-15.699c5.424-5.711,8.136-10.467,8.136-14.273c0-2.663-0.666-5.378-1.997-8.137 c-1.332-2.765-3.378-6.139-6.139-10.138c-2.762-3.997-4.427-6.374-4.999-7.139c-2.852-4.755-5.799-9.846-8.848-15.271 c-3.049-5.424-6.377-11.47-9.995-18.131c-3.615-6.658-6.468-11.799-8.564-15.415C98.986,9.233,93.943,1.997,90.516,0.859 C89.183,0.288,87.183,0,84.521,0c-5.142,0-11.85,0.95-20.129,2.856c-8.282,1.903-14.799,3.899-19.558,5.996 c-9.517,3.995-19.604,15.605-30.264,34.826C4.863,61.566,0.01,79.271,0.01,96.78c0,5.135,0.333,10.131,0.999,14.989 c0.666,4.853,1.856,10.326,3.571,16.418c1.712,6.09,3.093,10.614,4.137,13.56c1.045,2.948,2.996,8.229,5.852,15.845 c2.852,7.614,4.567,12.275,5.138,13.988c6.661,18.654,14.56,35.307,23.695,49.964c15.03,24.362,35.541,49.539,61.521,75.521 c25.981,25.98,51.153,46.49,75.517,61.526c14.655,9.134,31.314,17.032,49.965,23.698c1.714,0.568,6.375,2.279,13.986,5.141 c7.614,2.854,12.897,4.805,15.845,5.852c2.949,1.048,7.474,2.43,13.559,4.145c6.098,1.715,11.566,2.905,16.419,3.576 c4.856,0.657,9.853,0.996,14.989,0.996c17.508,0,35.214-4.856,53.105-14.562c19.219-10.656,30.826-20.745,34.823-30.269 c2.102-4.754,4.093-11.273,5.996-19.555c1.909-8.278,2.857-14.985,2.857-20.126C401.99,314.814,401.703,312.819,401.129,311.475z" />
</symbol>
<symbol id="briefcase" viewBox="0 0 511.626 511.627">
	<path d="M319.77,338.039c0,4.949-1.811,9.236-5.424,12.847c-3.617,3.621-7.902,5.428-12.851,5.428h-91.361 c-4.952,0-9.233-1.807-12.85-5.428c-3.616-3.61-5.424-7.897-5.424-12.847V292.36H0v137.044c0,12.56,4.471,23.312,13.418,32.257 c8.945,8.946,19.701,13.419,32.264,13.419h420.266c12.56,0,23.315-4.473,32.261-13.419c8.949-8.945,13.418-19.697,13.418-32.257 V292.36H319.77V338.039L319.77,338.039z"/><rect x="219.266" y="292.36" width="73.096" height="36.545"/><path d="M498.208,123.054c-8.945-8.947-19.701-13.418-32.261-13.418H365.446V63.953c0-7.614-2.663-14.084-7.994-19.414 c-5.325-5.327-11.8-7.993-19.411-7.993H173.589c-7.612,0-14.083,2.666-19.414,7.993s-7.994,11.799-7.994,19.414v45.683H45.682 c-12.562,0-23.318,4.471-32.264,13.418C4.471,132,0,142.75,0,155.313v109.636h511.626V155.313 C511.626,142.75,507.158,132,498.208,123.054z M328.904,109.636H182.725V73.089h146.179V109.636z" />
</symbol>
<symbol id="envelope" viewBox="0 0 511.626 511.626">
	<path d="M49.106,178.729c6.472,4.567,25.981,18.131,58.528,40.685c32.548,22.554,57.482,39.92,74.803,52.099 c1.903,1.335,5.946,4.237,12.131,8.71c6.186,4.476,11.326,8.093,15.416,10.852c4.093,2.758,9.041,5.852,14.849,9.277 c5.806,3.422,11.279,5.996,16.418,7.7c5.14,1.718,9.898,2.569,14.275,2.569h0.287h0.288c4.377,0,9.137-0.852,14.277-2.569 c5.137-1.704,10.615-4.281,16.416-7.7c5.804-3.429,10.752-6.52,14.845-9.277c4.093-2.759,9.229-6.376,15.417-10.852 c6.184-4.477,10.232-7.375,12.135-8.71c17.508-12.179,62.051-43.11,133.615-92.79c13.894-9.703,25.502-21.411,34.827-35.116 c9.332-13.699,13.993-28.07,13.993-43.105c0-12.564-4.523-23.319-13.565-32.264c-9.041-8.947-19.749-13.418-32.117-13.418H45.679 c-14.655,0-25.933,4.948-33.832,14.844C3.949,79.562,0,91.934,0,106.779c0,11.991,5.236,24.985,15.703,38.974 C26.169,159.743,37.307,170.736,49.106,178.729z" /><path d="M483.072,209.275c-62.424,42.251-109.824,75.087-142.177,98.501c-10.849,7.991-19.65,14.229-26.409,18.699 c-6.759,4.473-15.748,9.041-26.98,13.702c-11.228,4.668-21.692,6.995-31.401,6.995h-0.291h-0.287 c-9.707,0-20.177-2.327-31.405-6.995c-11.228-4.661-20.223-9.229-26.98-13.702c-6.755-4.47-15.559-10.708-26.407-18.699 c-25.697-18.842-72.995-51.68-141.896-98.501C17.987,202.047,8.375,193.762,0,184.437v226.685c0,12.57,4.471,23.319,13.418,32.265 c8.945,8.949,19.701,13.422,32.264,13.422h420.266c12.56,0,23.315-4.473,32.261-13.422c8.949-8.949,13.418-19.694,13.418-32.265 V184.437C503.441,193.569,493.927,201.854,483.072,209.275z" />
</symbol>
<symbol id="rocket" viewBox="0 0 466.227 466.227">
	<path d="M463.36,2.852c-1.906-1.805-4.188-2.712-6.854-2.712c-49.677,0-90.694,6.755-123.051,20.271 c-32.353,13.518-66.424,38.072-102.208,73.662c-15.225,15.418-31.977,33.977-50.248,55.675l-108.205,5.708 c-3.046,0.387-5.52,1.906-7.423,4.57L1.418,269.666c-2.285,3.806-1.807,7.519,1.427,11.136l18.271,18.271 c1.714,1.714,3.901,2.569,6.567,2.569c1.143,0,1.997-0.096,2.568-0.287l78.802-24.273l80.228,80.232l-24.269,78.795 c-0.949,3.43-0.188,6.472,2.285,9.138l18.272,18.274c2.094,1.707,4.285,2.566,6.567,2.566c1.716,0,3.238-0.384,4.569-1.144 l109.639-63.953c2.666-1.902,4.186-4.373,4.568-7.419l5.708-108.209c21.7-18.274,40.262-35.022,55.676-50.251 c33.89-34.074,58.009-68.378,72.375-102.923c14.373-34.547,21.556-75.519,21.556-122.91C466.224,6.804,465.273,4.664,463.36,2.852z M394.277,110.92c-5.325,5.326-11.8,7.994-19.414,7.994s-14.082-2.665-19.414-7.994c-5.325-5.33-7.994-11.802-7.994-19.417 c0-7.611,2.666-14.084,7.994-19.414c5.328-5.327,11.8-7.993,19.414-7.993s14.086,2.663,19.414,7.993s7.994,11.803,7.994,19.414 C402.271,99.119,399.612,105.586,394.277,110.92z" />
</symbol>
<symbol id="spy" viewBox="0 0 1792 1792">
	<path d="M704 1536l96-448-96-128-128-64zm256 0l128-640-128 64-96 128zm160-1010q-2-4-4-6-10-8-96-8-70 0-167 19-7 2-21 2t-21-2q-97-19-167-19-86 0-96 8-2 2-4 6 2 18 4 27 2 3 7.5 6.5t7.5 10.5q2 4 7.5 20.5t7 20.5 7.5 17 8.5 17 9 14 12 13.5 14 9.5 17.5 8 20.5 4 24.5 2q36 0 59-12.5t32.5-30 14.5-34.5 11.5-29.5 17.5-12.5h12q11 0 17.5 12.5t11.5 29.5 14.5 34.5 32.5 30 59 12.5q13 0 24.5-2t20.5-4 17.5-8 14-9.5 12-13.5 9-14 8.5-17 7.5-17 7-20.5 7.5-20.5q2-7 7.5-10.5t7.5-6.5q2-9 4-27zm416 879q0 121-73 190t-194 69h-874q-121 0-194-69t-73-190q0-61 4.5-118t19-125.5 37.5-123.5 63.5-103.5 93.5-74.5l-90-220h214q-22-64-22-128 0-12 2-32-194-40-194-96 0-57 210-99 17-62 51.5-134t70.5-114q32-37 76-37 30 0 84 31t84 31 84-31 84-31q44 0 76 37 36 42 70.5 114t51.5 134q210 42 210 99 0 56-194 96 7 81-20 160h214l-82 225q63 33 107.5 96.5t65.5 143.5 29 151.5 8 148.5z"/>
</symbol>
<symbol id="download" viewBox="0 0 1792 1792">
	<path d="M1344 1344q0-26-19-45t-45-19-45 19-19 45 19 45 45 19 45-19 19-45zm256 0q0-26-19-45t-45-19-45 19-19 45 19 45 45 19 45-19 19-45zm128-224v320q0 40-28 68t-68 28h-1472q-40 0-68-28t-28-68v-320q0-40 28-68t68-28h465l135 136q58 56 136 56t136-56l136-136h464q40 0 68 28t28 68zm-325-569q17 41-14 70l-448 448q-18 19-45 19t-45-19l-448-448q-31-29-14-70 17-39 59-39h256v-448q0-26 19-45t45-19h256q26 0 45 19t19 45v448h256q42 0 59 39z"/>
</symbol>
  </svg>